<svg xmlns="http://www.w3.org/2000/svg" width="1024" height="1520.5" viewBox="0 0 1024 1520.5"><path d="M682.829 67.6c-.185.252-.47.385-.759.385-.194 0-.389-.06-.558-.183-.419-.309-.509-.896-.202-1.315l1.077-1.456c.308-.417.896-.508 1.315-.199.421.306.511.895.201 1.313l-1.074 1.455zm-.825-2.839c.308-.418.217-1.007-.201-1.316-.421-.308-1.008-.216-1.317.203l-1.073 1.449c-.309.419-.217 1.009.202 1.317.417.307 1.007.218 1.315-.202l1.074-1.451zm-1.9-1.388c.309-.417.217-1.007-.203-1.315-.418-.307-1.007-.216-1.314.202l-1.083 1.461c-.308.419-.209.995.209 1.304.421.308 1 .229 1.308-.19l1.083-1.462zm-1.898-1.386c.308-.419.219-1.007-.203-1.315-.419-.309-1.007-.218-1.315.201l-1.075 1.451c-.308.418-.217 1.008.202 1.315.419.307 1.008.218 1.315-.202l1.076-1.45zm17.294-8.438s-1.555.301-2.667.479c-2.146.344-4.144-.416-6.361-1.562-.445-.229-.958-.467-1.458-.467-.461 0-.913.209-1.292.639-1.366 1.547-2.16 2.915-3.785 3.864-.801.468.14 1.934 1.86 1.331.878-.308 1.736-.895 2.706-1.677.762-.615 1.22-.524 1.879.135 1.238 1.238 5.404 5.351 5.404 5.351 1.317-.812 2.422-1.312 3.713-1.792v-6.301zm-10.524 12.662c-.158.459-.618 1.001-.953 1.455.297.236.607.334.881.334.717 0 1.188-.671.542-1.318l-.47-.471zm6.506-3.463c-1.07-1.055-4.732-4.667-5.803-5.713-.165-.161-.421-.18-.608-.044-.639.464-2.082 1.485-2.944 1.788-1.685.59-3.115-.222-3.422-1.359-.192-.711.093-1.409.727-1.779 1.008-.589 1.657-1.375 2.456-2.363-.695-.539-1.35-.732-1.991-.732-1.706 0-3.317 1.366-5.336 1.231-1.373-.091-3.061-.404-3.061-.404v6.333c1.476.321 2.455.464 3.92 1.199l.462-.624c.364-.496.949-.792 1.564-.792.87 0 1.622.578 1.861 1.388.951 0 1.667.602 1.898 1.387.826-.031 1.641.519 1.897 1.385 1.171 0 2.017.92 1.981 2.007l1.168 1.168c.367.368.963.367 1.331 0 .368-.368.368-.964 0-1.332l-1.686-1.687c-.22-.22.113-.553.333-.333l2.032 2.033c.368.368.963.368 1.331 0s.368-.963 0-1.331l-2.501-2.502c-.221-.218.113-.553.333-.333l2.7 2.701c.368.368.963.368 1.331 0 .358-.357.361-.923.027-1.292z"/><path d="M739.023 53.175c-1.397 0-2.335-.494-3.888-1.311-.852-.446-1.536-.864-2.518-.864-1.275 0-1.747.658-2.552 1.564-2.052-1.593-3.513-.907-4.809-.293-.756.358-1.538.729-2.586.729h-3.17v7.91c1.073.102 2.001.169 3.287.464-.789 1.431.057 3.157 1.634 3.422.324.675.971 1.159 1.718 1.286.312.653.942 1.151 1.709 1.279.544 1.147 1.962 1.664 3.188 1.07.435.357.986.569 1.567.569.892 0 1.737-.483 2.145-1.337.748-.157 1.358-.648 1.664-1.296.708-.147 1.324-.604 1.648-1.286 1.386-.282 2.292-1.727 1.688-3.178 1.096-.54 2.221-.76 3.752-1.1v-7.865c-.961.058-3.507.217-4.477.237zm-14.719 9.985c-.377-.284-.424-.828-.103-1.21l.782-.959c.321-.384.887-.465 1.265-.179.38.285.424.826.104 1.211l-.782.958c-.321.383-.887.462-1.266.179zm1.714 1.282c-.378-.286-.433-.816-.111-1.2l.79-.969c.321-.383.887-.464 1.265-.181.378.285.425.828.103 1.21l-.79.969c-.321.385-.877.457-1.257.171zm1.714 1.284c-.378-.285-.426-.828-.103-1.213l.78-.956c.321-.384.887-.467 1.266-.182.377.286.424.827.103 1.211l-.781.958c-.321.385-.889.465-1.265.182zm3.76.14l-.783.963c-.323.386-.888.465-1.266.181-.378-.285-.424-.826-.104-1.21l.785-.964c.322-.382.888-.464 1.265-.178.38.282.426.825.103 1.208zm1.642 1.422c-.154.119-.341.177-.531.177-.137 0-.273-.035-.401-.095l.454-.559c.199-.235.347-.513.44-.81l.124.11c.32.367.279.891-.086 1.177zm4.968-3.87c-.368.284-.924.215-1.24-.146l-2.496-2.141c-.207-.177-.471.136-.266.31l2.433 2.089c.319.366.278.893-.088 1.175-.369.287-.926.219-1.242-.146l-1.915-1.678c-.204-.179-.474.13-.271.309l1.868 1.642c.319.365.272.88-.097 1.166-.364.282-.911.231-1.231-.137l-.365-.325c.133-1.26-.747-2.32-1.924-2.516-.326-.684-.975-1.157-1.712-1.28-.322-.678-.967-1.157-1.712-1.282-.647-1.359-2.428-1.748-3.648-.777-.801-.238-1.687-.436-2.695-.572v-4.109h1.17c1.498 0 2.577-.511 3.443-.922 1.086-.515 1.609-.754 2.581-.046-.64.636-1.294 1.196-1.967 1.589-.589.343-.853.998-.672 1.668.236.874 1.262 1.758 2.767 1.758 1.981 0 2.935-1.196 3.935-1.766 1.493 1.436 3.93 3.644 5.47 5.026.265.362.221.842-.126 1.111zm3.398-4.217c-.912.215-1.801.469-2.707.926-1.085-.979-3.529-3.193-4.399-4.063-.992-.991-1.994-1.086-3.093-.197-.79.636-2.018 1.447-2.971 1.099 1.365-.957 2.592-2.35 3.692-3.596.313-.354.527-.592 1.502-.09l.678.355c1.725.908 3.07 1.627 5.132 1.535.619-.023 1.486-.07 2.165-.108v4.139z"/><path d="M779.652 63.614c.314.229.383.671.15.984l-.807 1.092c-.215.294-.682.374-.986.151-.314-.231-.383-.672-.152-.986l.809-1.092c.229-.31.67-.382.986-.149zm-4.929-1.046l.807-1.087c.23-.314.164-.755-.152-.987-.316-.232-.756-.163-.986.151l-.806 1.088c-.23.313-.163.756.151.987.298.218.768.146.986-.152zm2.516.158l-.805 1.086c-.231.315-.162.757.151.988.301.221.77.145.987-.151l.805-1.088c.231-.313.163-.755-.151-.987-.313-.23-.753-.163-.987.152zm3.563 2.117c-.128.302-.472.726-.707 1.044.155.08.31.113.451.113.542 0 .902-.511.415-.998l-.159-.159zm-4.986-3.157l-.812 1.096c-.23.314-.157.746.156.978.308.225.768.15.981-.143l.812-1.097c.232-.312.163-.755-.152-.986-.315-.23-.755-.161-.985.152zm12.746-.811l2.938-.781-1.583-6.094-2.979.896 1.624 5.979zm-2.482-5.322c-1.453.106-2.834-.429-4.351-1.212-.334-.172-.719-.312-1.095-.312-.346 0-.685.119-.969.441-1.024 1.161-1.619 2.187-2.839 2.898-.601.351.104 1.45 1.396.999.658-.231 1.55-.827 2.277-1.413.572-.461.914-.394 1.41.102.928.929 4.053 4.013 4.053 4.013.483-.298.95-.539 1.413-.746l-1.295-4.77zm-14.018-.657l-2.979-.896-1.583 6.094 2.938.781 1.624-5.979zm13.406 7.126c-.484-.535-3.737-3.733-4.315-4.31-.981.736-2.273 1.761-3.521 1.761-.943 0-1.752-.557-1.968-1.354-.173-.635.093-1.285.66-1.616.71-.414 1.181-.981 1.755-1.691-1.754-1.108-3.25.692-5.149.709l-1.273 4.685c.556.132 1.04.272 1.489.441l.44-.595c.792-1.081 2.444-.857 2.95.351.64.056 1.186.469 1.424 1.04.619.054 1.174.447 1.422 1.039.936.081 1.7.93 1.53 1.972l.654.654c.275.276.723.275.997 0 .276-.276.276-.723 0-.999l-1.264-1.265c-.069-.069-.069-.183.003-.252.069-.066.179-.065.247.002l1.523 1.524c.275.276.723.276.998 0 .276-.276.276-.722 0-.998l-1.875-1.876c-.072-.071-.069-.188.006-.255.069-.063.178-.062.243.005l2.025 2.025c.275.276.723.276.998 0 .276-.275.276-.721.001-.997z"/><path d="M836.016 61.453l3.484-.891-1.932-7.562-3.526.891.196.753c-1.796.24-2.544-.226-4.459-1.226-.498-.256-.973-.417-1.408-.417-.592 0-1.108.268-1.503.714l-.491.552c-1.956-1.525-3.178-.405-4.505.083-.364.136-.793.185-1.087.203l.173-.662-3.526-.891-1.932 7.562 3.484.891.182-.695c.316.06 1.509.291 1.733.347-.649 1.055.01 2.357 1.198 2.495.226.545.741.932 1.34 1.003.225.544.736.928 1.332.997.33.815 1.305 1.267 2.232.863.353.355.841.538 1.356.538.703 0 1.349-.344 1.674-1.012.574-.12 1.052-.498 1.296-1.01.552-.115 1.031-.47 1.285-1.002.759-.154 1.378-.773 1.457-1.602.031-.312-.03-.624-.155-.91.289-.16 1.442-.647 1.886-.833l.216.821zm.686-6.996l1.338 5.24-1.165.298-1.366-5.237 1.193-.301zm-18.577 5.538l-1.165-.298 1.338-5.24 1.193.301-1.366 5.237zm3.766 2.484c-.294-.221-.331-.645-.08-.942l.61-.749c.249-.298.69-.363.986-.14.295.223.33.644.08.944l-.609.747c-.25.299-.693.361-.987.14zm1.336 1c-.296-.224-.337-.636-.086-.936l.616-.754c.25-.3.69-.363.984-.142.295.222.33.646.082.943l-.617.755c-.25.301-.682.356-.979.134zm1.336 1c-.295-.222-.333-.645-.082-.945l.609-.745c.251-.299.69-.364.986-.142.295.223.331.645.08.944l-.608.747c-.25.3-.691.361-.985.141zm2.93.108l-.61.75c-.251.302-.691.363-.986.142-.295-.222-.331-.645-.082-.943l.612-.751c.252-.298.693-.362.987-.139.296.221.332.644.079.941zm1.28 1.11c-.12.092-.266.138-.415.138-.16 0-.315-.069-.448-.176l.358-.441c.159-.187.269-.412.332-.65l.24.212c.251.285.218.694-.067.917zm3.873-3.017c-.289.222-.719.168-.967-.114l-1.944-1.669c-.16-.138-.37.107-.208.242l1.896 1.628c.248.285.217.696-.068.916-.276.218-.712.181-.969-.114l-1.491-1.308c-.161-.139-.37.102-.213.241l1.457 1.279c.249.285.211.686-.075.909-.28.218-.708.184-.96-.106l-.45-.402-.002-.225c-.089-.78-.711-1.352-1.449-1.434-.224-.547-.737-.93-1.335-.998-.218-.535-.726-.93-1.334-1-.397-.975-1.636-1.334-2.549-.679-.425-.133-1.852-.45-2.434-.564l.836-3.204c.783-.037 1.694-.132 2.902-.705.864-.411 1.278-.599 2.067-.013-.508.507-1.027.956-1.562 1.269-.48.28-.688.837-.531 1.419.181.668.856 1.343 1.96 1.343s2.924-1.014 3.279-1.502c1.472 1.391 2.902 2.684 4.143 3.796.35.389.285.775.001.995zm.526-2.537c-.837-.753-2.728-2.462-3.407-3.142-.289-.288-.691-.619-1.244-.619-.49 0-.878.267-1.128.468-.573.462-2.019 1.378-2.592.92 1.161-.754 2.208-1.943 3.192-3.063.24-.273.587-.219 1.1.044 2.153 1.125 3.007 1.666 5.538 1.394l.779 2.987c-.5.198-1.823.779-2.238 1.011z"/><path d="M863.5 60.562l1.932-7.562 3.526.891-1.974 7.562-3.484-.891zm18.415.902c.125.287.187.598.155.91-.079.829-.698 1.448-1.457 1.602-.254.533-.733.887-1.285 1.002-.244.512-.722.89-1.296 1.01-.325.668-.971 1.012-1.674 1.012-.516 0-1.004-.183-1.356-.538-.928.404-1.902-.048-2.232-.863-.596-.068-1.107-.452-1.332-.997-.599-.071-1.114-.458-1.34-1.003-1.188-.138-1.848-1.44-1.198-2.495-.233-.058-.494-.104-.751-.152l.383-1.464c.524.1 1.01.219 1.453.358.913-.655 2.151-.295 2.549.679.608.069 1.116.464 1.334 1 .598.068 1.111.451 1.335.998.738.082 1.36.653 1.449 1.434l.002.225.45.402c.252.291.68.324.96.106.286-.223.324-.624.075-.909l-1.457-1.279c-.157-.139.052-.38.213-.241l1.491 1.308c.257.294.692.332.969.114.285-.22.316-.631.068-.916l-1.896-1.628c-.162-.135.048-.38.208-.242l1.944 1.669c.248.282.678.335.967.114.283-.22.349-.606-.002-.995-1.24-1.112-2.671-2.405-4.143-3.796-.355.488-2.176 1.502-3.279 1.502s-1.779-.675-1.96-1.343c-.157-.582.051-1.139.531-1.419.535-.313 1.055-.762 1.562-1.269-.789-.586-1.203-.398-2.067.013-.503.238-1.1.521-1.854.647l.437-1.671c1.327-.488 2.549-1.608 4.505-.083l.491-.552c.395-.447.911-.714 1.503-.714.436 0 .91.161 1.408.417 1.518.793 2.293 1.256 3.443 1.294l.394 1.508h-.008c-1.797.033-2.676-.508-4.516-1.47-.513-.263-.859-.318-1.1-.044-.984 1.12-2.031 2.309-3.192 3.063.573.458 2.019-.458 2.592-.92.25-.201.638-.468 1.128-.468.553 0 .955.331 1.244.619.68.68 2.57 2.389 3.407 3.142.434-.242.868-.435 1.311-.605l.383 1.467c-.318.134-.632.286-.949.461zm-11.037.875l.609-.747c.25-.3.215-.722-.08-.944-.296-.223-.737-.158-.986.14l-.61.749c-.251.298-.214.721.08.942s.737.159.987-.14zm1.328 1.006l.617-.755c.248-.297.213-.722-.082-.943-.294-.221-.734-.159-.984.142l-.616.754c-.251.3-.21.712.086.936.297.222.729.167.979-.134zm1.343.992l.608-.747c.251-.299.215-.721-.08-.944-.296-.222-.735-.157-.986.142l-.609.745c-.251.3-.213.724.082.945.293.221.734.16.985-.141zm1.865-.691c-.294-.224-.735-.159-.987.139l-.612.751c-.249.299-.213.722.082.943.295.221.735.16.986-.142l.61-.75c.253-.297.217-.72-.079-.941zm1.427 1.134l-.24-.212c-.063.239-.173.464-.332.65l-.358.441c.133.106.288.176.448.176.149 0 .295-.046.415-.138.284-.223.317-.632.067-.917zm5.201-10.889l1.974 7.562 3.484-.891-1.932-7.562-3.526.891z"/><path d="M923.652 66.614c.314.229.383.671.15.984l-.807 1.092c-.215.294-.682.374-.986.151-.314-.231-.383-.672-.152-.986l.809-1.092c.229-.31.67-.382.986-.149zm-4.929-1.046l.807-1.087c.23-.314.164-.755-.152-.987-.316-.232-.756-.163-.986.151l-.806 1.088c-.23.313-.163.756.151.987.298.218.768.146.986-.152zm2.516.158l-.805 1.086c-.231.315-.162.757.151.988.301.221.77.145.987-.151l.805-1.088c.231-.313.163-.755-.151-.987-.313-.23-.753-.163-.987.152zm3.563 2.117c-.128.302-.472.726-.707 1.044.155.08.31.113.451.113.542 0 .902-.511.415-.998l-.159-.159zm-4.986-3.157l-.812 1.096c-.23.314-.157.746.156.978.308.225.768.15.981-.143l.812-1.097c.232-.312.163-.755-.152-.986-.315-.23-.755-.161-.985.152zm12.746-.811l2.938-.781-1.583-6.094-2.979.896 1.624 5.979zm-2.482-5.322c-1.453.106-2.834-.429-4.351-1.212-.334-.172-.719-.312-1.095-.312-.346 0-.685.119-.969.441-1.024 1.161-1.619 2.187-2.839 2.898-.601.351.104 1.45 1.396.999.658-.231 1.55-.827 2.277-1.413.572-.461.914-.394 1.41.102.928.929 4.053 4.013 4.053 4.013.483-.298.95-.539 1.413-.746l-1.295-4.77zm-14.018-.657l-2.979-.896-1.583 6.094 2.938.781 1.624-5.979zm13.406 7.126c-.484-.535-3.737-3.733-4.315-4.31-.981.736-2.273 1.761-3.521 1.761-.943 0-1.752-.557-1.968-1.354-.173-.635.093-1.285.66-1.616.71-.414 1.181-.981 1.755-1.691-1.754-1.108-3.25.692-5.149.709l-1.273 4.685c.556.132 1.04.272 1.489.441l.44-.595c.792-1.081 2.444-.857 2.95.351.64.056 1.186.469 1.424 1.04.619.054 1.174.447 1.422 1.039.936.081 1.7.93 1.53 1.972l.654.654c.275.276.723.275.997 0 .276-.276.276-.723 0-.999l-1.264-1.265c-.069-.069-.069-.183.003-.252.069-.066.179-.065.247.002l1.523 1.524c.275.276.723.276.998 0 .276-.276.276-.722 0-.998l-1.875-1.876c-.072-.071-.069-.188.006-.255.069-.063.178-.062.243.005l2.025 2.025c.275.276.723.276.998 0 .276-.275.276-.721.001-.997zm-7.386-14.022l-.984.174.521 2.954.984-.174-.521-2.954zm3.82.174l-.984-.174-.521 2.954.986.174.519-2.954zm3.598 1.228l-.867-.5-1.5 2.598.867.5 1.5-2.598zm-11.133-.5l-.867.5 1.5 2.598.867-.5-1.5-2.598z"/><path d="M671.5 111.562l1.932-7.562 3.526.891-1.974 7.562-3.484-.891zm18.415.902c.125.287.187.598.155.91-.079.829-.698 1.448-1.457 1.602-.254.533-.733.887-1.285 1.002-.244.512-.722.89-1.296 1.01-.325.668-.971 1.012-1.674 1.012-.516 0-1.004-.183-1.356-.538-.928.404-1.902-.048-2.232-.863-.596-.068-1.107-.452-1.332-.997-.599-.071-1.114-.458-1.34-1.003-1.188-.138-1.848-1.44-1.198-2.495-.233-.058-.494-.104-.751-.152l.383-1.464c.524.1 1.01.219 1.453.358.913-.655 2.151-.295 2.549.679.608.069 1.116.464 1.334 1 .598.068 1.111.451 1.335.998.738.082 1.36.653 1.449 1.434l.002.225.45.402c.252.291.68.324.96.106.286-.223.324-.624.075-.909l-1.457-1.279c-.157-.139.052-.38.213-.241l1.491 1.308c.257.294.692.332.969.114.285-.22.316-.631.068-.916l-1.896-1.628c-.162-.135.048-.38.208-.242l1.944 1.669c.248.282.678.335.967.114.283-.22.349-.606-.002-.995-1.24-1.112-2.671-2.405-4.143-3.796-.355.488-2.176 1.502-3.279 1.502s-1.779-.675-1.96-1.343c-.157-.582.051-1.139.531-1.419.535-.313 1.055-.762 1.562-1.269-.789-.586-1.203-.398-2.067.013-.503.238-1.1.521-1.854.647l.437-1.671c1.327-.488 2.549-1.608 4.505-.083l.491-.552c.395-.447.911-.714 1.503-.714.436 0 .91.161 1.408.417 1.518.793 2.293 1.256 3.443 1.294l.394 1.508h-.008c-1.797.033-2.676-.508-4.516-1.47-.513-.263-.859-.318-1.1-.044-.984 1.12-2.031 2.309-3.192 3.063.573.458 2.019-.458 2.592-.92.25-.201.638-.468 1.128-.468.553 0 .955.331 1.244.619.68.68 2.57 2.389 3.407 3.142.434-.242.868-.435 1.311-.605l.383 1.467c-.318.134-.632.286-.949.461zm-11.037.875l.609-.747c.25-.3.215-.722-.08-.944-.296-.223-.737-.158-.986.14l-.61.749c-.251.298-.214.721.08.942s.737.159.987-.14zm1.328 1.006l.617-.755c.248-.297.213-.722-.082-.943-.294-.221-.734-.159-.984.142l-.616.754c-.251.3-.21.712.086.936.297.222.729.167.979-.134zm1.343.992l.608-.747c.251-.299.215-.721-.08-.944-.296-.222-.735-.157-.986.142l-.609.745c-.251.3-.213.724.082.945.293.221.734.16.985-.141zm1.865-.691c-.294-.224-.735-.159-.987.139l-.612.751c-.249.299-.213.722.082.943.295.221.735.16.986-.142l.61-.75c.253-.297.217-.72-.079-.941zm1.427 1.134l-.24-.212c-.063.239-.173.464-.332.65l-.358.441c.133.106.288.176.448.176.149 0 .295-.046.415-.138.284-.223.317-.632.067-.917zm5.201-10.889l1.974 7.562 3.484-.891-1.932-7.562-3.526.891zm-7.959-6.891l-.985.174.521 2.954.984-.174-.52-2.954zm3.82.174l-.985-.174-.521 2.954.985.174.521-2.954zm3.597 1.228l-.867-.5-1.5 2.598.867.5 1.5-2.598zm-11.133-.5l-.867.5 1.5 2.598.867-.5-1.5-2.598z"/><path d="M719.5 108.562l1.932-7.562 3.526.891-1.974 7.562-3.484-.891zm18.415.902c.125.287.187.598.155.91-.079.829-.698 1.448-1.457 1.602-.254.533-.733.887-1.285 1.002-.244.512-.722.89-1.296 1.01-.325.668-.971 1.012-1.674 1.012-.516 0-1.004-.183-1.356-.538-.928.404-1.902-.048-2.232-.863-.596-.068-1.107-.452-1.332-.997-.599-.071-1.114-.458-1.34-1.003-1.188-.138-1.848-1.44-1.198-2.495-.233-.058-.494-.104-.751-.152l.383-1.464c.524.1 1.01.219 1.453.358.913-.655 2.151-.295 2.549.679.608.069 1.116.464 1.334 1 .598.068 1.111.451 1.335.998.738.082 1.36.653 1.449 1.434l.002.225.45.402c.252.291.68.324.96.106.286-.223.324-.624.075-.909l-1.457-1.279c-.157-.139.052-.38.213-.241l1.491 1.308c.257.294.692.332.969.114.285-.22.316-.631.068-.916l-1.896-1.628c-.162-.135.048-.38.208-.242l1.944 1.669c.248.282.678.335.967.114.283-.22.349-.606-.002-.995-1.24-1.112-2.671-2.405-4.143-3.796-.355.488-2.176 1.502-3.279 1.502s-1.779-.675-1.96-1.343c-.157-.582.051-1.139.531-1.419.535-.313 1.055-.762 1.562-1.269-.789-.586-1.203-.398-2.067.013-.503.238-1.1.521-1.854.647l.437-1.671c1.327-.488 2.549-1.608 4.505-.083l.491-.552c.395-.447.911-.714 1.503-.714.436 0 .91.161 1.408.417 1.518.793 2.293 1.256 3.443 1.294l.394 1.508h-.008c-1.797.033-2.676-.508-4.516-1.47-.513-.263-.859-.318-1.1-.044-.984 1.12-2.031 2.309-3.192 3.063.573.458 2.019-.458 2.592-.92.25-.201.638-.468 1.128-.468.553 0 .955.331 1.244.619.68.68 2.57 2.389 3.407 3.142.434-.242.868-.435 1.311-.605l.383 1.467c-.318.134-.632.286-.949.461zm-11.037.875l.609-.747c.25-.3.215-.722-.08-.944-.296-.223-.737-.158-.986.14l-.61.749c-.251.298-.214.721.08.942s.737.159.987-.14zm1.328 1.006l.617-.755c.248-.297.213-.722-.082-.943-.294-.221-.734-.159-.984.142l-.616.754c-.251.3-.21.712.086.936.297.222.729.167.979-.134zm1.343.992l.608-.747c.251-.299.215-.721-.08-.944-.296-.222-.735-.157-.986.142l-.609.745c-.251.3-.213.724.082.945.293.221.734.16.985-.141zm1.865-.691c-.294-.224-.735-.159-.987.139l-.612.751c-.249.299-.213.722.082.943.295.221.735.16.986-.142l.61-.75c.253-.297.217-.72-.079-.941zm1.427 1.134l-.24-.212c-.063.239-.173.464-.332.65l-.358.441c.133.106.288.176.448.176.149 0 .295-.046.415-.138.284-.223.317-.632.067-.917zm5.201-10.889l1.974 7.562 3.484-.891-1.932-7.562-3.526.891zm-7.959-5.891l-.985.174.521 2.954.984-.174-.52-2.954zm3.82.174l-.985-.174-.521 2.954.985.174.521-2.954zm3.597 1.228l-.867-.5-1.5 2.598.867.5 1.5-2.598zm-11.133-.5l-.867.5 1.5 2.598.867-.5-1.5-2.598zm4.236 20.144l-.984-.174-.521 2.954.985.174.52-2.954zm2.779-.174l-.985.174.521 2.954.985-.174-.521-2.954zm2.618-.872l-.867.5 1.5 2.598.867-.5-1.5-2.598zm-8.133.5l-.867-.5-1.5 2.598.867.5 1.5-2.598z"/><path d="M788.562 109.875l-1.625-5.979 3.367-1.092c-1.939-4.022-6.04-6.804-10.804-6.804-4.779 0-8.894 2.801-10.824 6.845l3.386 1.051-1.625 5.979-2.938-.767c.56 6.107 5.747 10.892 12 10.892s11.439-4.784 12-10.892l-2.937.767zm-14.826 1.845c-.314-.231-.382-.673-.151-.987l.806-1.088c.23-.313.67-.383.986-.151.316.231.383.672.152.987l-.807 1.087c-.217.298-.687.37-.986.152zm1.424 1.04c-.313-.232-.387-.664-.156-.978l.812-1.096c.229-.313.67-.381.984-.151.315.23.385.673.152.986l-.812 1.097c-.212.292-.672.366-.98.142zm1.426 1.04c-.313-.231-.383-.673-.151-.988l.805-1.086c.233-.315.674-.382.987-.152.314.231.383.673.151.987l-.805 1.088c-.218.296-.686.372-.987.151zm3.217-.201l-.807 1.092c-.215.294-.682.374-.986.151-.314-.231-.383-.672-.152-.986l.809-1.092c.229-.311.67-.382.986-.149.314.228.382.671.15.984zm.743 1.401c-.142 0-.296-.033-.451-.113.235-.318.579-.742.707-1.044l.159.159c.487.487.127.998-.415.998zm4.922-2.979c-.275.276-.723.276-.998 0l-2.025-2.025c-.065-.067-.174-.069-.243-.005-.075.067-.078.184-.006.255l1.875 1.876c.276.276.276.722 0 .998-.275.276-.723.276-.998 0l-1.523-1.524c-.068-.068-.178-.069-.247-.002-.072.069-.072.183-.003.252l1.264 1.265c.276.276.276.722 0 .999-.274.275-.722.276-.997 0l-.654-.654c.17-1.042-.595-1.891-1.53-1.972-.248-.591-.803-.985-1.422-1.039-.238-.571-.784-.984-1.424-1.04-.506-1.208-2.158-1.432-2.95-.351l-.44.595c-.449-.169-.934-.31-1.489-.441l1.273-4.685c1.899-.017 3.396-1.817 5.149-.709-.574.71-1.045 1.277-1.755 1.691-.567.332-.833.981-.66 1.616.216.797 1.024 1.354 1.968 1.354 1.248 0 2.54-1.025 3.521-1.761.578.577 3.831 3.775 4.315 4.31.274.274.274.72-.001.997zm.495-1.954s-3.125-3.084-4.053-4.013c-.496-.495-.838-.562-1.41-.102-.728.586-1.619 1.182-2.277 1.413-1.291.452-1.996-.647-1.396-.999 1.22-.711 1.814-1.737 2.839-2.898.284-.322.623-.441.969-.441.376 0 .761.14 1.095.312 1.517.784 2.897 1.319 4.351 1.212l1.296 4.768c-.464.209-.931.451-1.414.748z"/><path d="M827.5 96c-6.627 0-12 5.373-12 12s5.373 12 12 12 12-5.373 12-12-5.373-12-12-12zm0 22c-5.144 0-9.39-3.905-9.938-8.905l2.385.635 1.355-4.983-2.895-.886c1.578-3.452 5.056-5.86 9.092-5.86 4.047 0 7.532 2.421 9.104 5.886l-2.907.86 1.355 4.983 2.384-.635c-.545 5-4.791 8.905-9.935 8.905zm-.936-6.032l-.671.907c-.181.246-.571.31-.821.125-.263-.192-.32-.56-.126-.823l.67-.905c.194-.262.561-.318.823-.126.262.192.319.56.125.822zm-1.187-.868l-.675.915c-.179.244-.562.306-.819.118-.261-.193-.322-.553-.129-.814l.676-.914c.191-.261.559-.318.82-.126.263.192.321.561.127.821zm-1.186-.866l-.672.906c-.182.248-.574.308-.822.126-.262-.192-.319-.561-.127-.822l.672-.907c.191-.262.559-.319.822-.125.264.192.319.56.127.822zm8.282.452c.23.229.23.602 0 .832-.229.229-.603.229-.831 0l-1.688-1.688c-.055-.055-.144-.057-.202-.004-.062.057-.065.154-.005.213l1.562 1.563c.229.23.229.602 0 .832s-.602.23-.832 0l-1.27-1.271c-.057-.057-.148-.057-.205-.001-.062.057-.062.151-.003.21l1.054 1.054c.229.23.229.601 0 .832-.229.229-.602.229-.832 0l-.544-.545c.141-.868-.497-1.576-1.276-1.644-.207-.492-.668-.821-1.185-.865-.198-.476-.654-.82-1.187-.867-.422-1.007-1.799-1.193-2.459-.292l-.367.496c-.373-.141-.777-.258-1.241-.367l1.062-3.904c1.584-.014 2.83-1.515 4.291-.591-.479.591-.87 1.063-1.462 1.409-.473.276-.694.817-.551 1.347.181.664.854 1.128 1.641 1.128 1.04 0 2.116-.854 2.935-1.468.481.479 3.191 3.145 3.595 3.591zm-4.846 1.326c.262.191.318.56.125.82l-.672.91c-.18.246-.568.311-.822.125-.262-.192-.318-.56-.127-.822l.674-.91c.191-.258.558-.317.822-.123zm5.356-6.718l1.08 3.973c-.387.173-.774.374-1.178.622 0 0-2.604-2.57-3.378-3.344-.412-.413-.697-.469-1.174-.085-.607.489-1.35.985-1.898 1.178-1.076.376-1.664-.54-1.163-.832 1.017-.593 1.513-1.448 2.366-2.415.237-.269.52-.368.807-.368.313 0 .635.117.912.261 1.264.653 2.415 1.099 3.626 1.01zm-4.266 7.874c.406.406.106.832-.346.832-.117 0-.246-.027-.375-.094.195-.265.482-.618.589-.871l.132.133z"/></svg>